<svg width="275" height="251" viewBox="0 0 275 251" fill="none" xmlns="http://www.w3.org/2000/svg">
<path d="M121.926 161.508C113.707 161.508 106.153 159.512 99.2647 155.52C92.3763 151.449 86.8969 145.892 82.8265 138.847C78.8344 131.724 76.8384 123.739 76.8384 114.894C76.8384 106.362 78.9127 98.5734 83.0614 91.5285C87.2883 84.4836 92.8851 78.926 99.8517 74.8556C106.897 70.7852 114.372 68.75 122.278 68.75C127.757 68.75 132.102 69.2588 135.311 70.2764C138.52 71.2157 142.239 72.8987 146.466 75.3252V79.6696C142.473 76.9299 138.755 75.0121 135.311 73.9163C131.945 72.7421 127.718 72.155 122.63 72.155C114.881 72.155 107.797 74.1511 101.378 78.1432C95.0377 82.057 89.9889 87.3407 86.2316 93.9942C82.5526 100.569 80.7131 107.654 80.7131 115.246C80.7131 122.917 82.5917 130.041 86.349 136.616C90.1063 143.191 95.0769 148.436 101.261 152.35C107.523 156.185 114.255 158.103 121.456 158.103C126.622 158.103 131.123 157.516 134.959 156.342C138.794 155.089 142.63 153.171 146.466 150.588V154.933C142.708 157.203 138.834 158.847 134.841 159.864C130.928 160.96 126.622 161.508 121.926 161.508Z" fill="white"/>
<path d="M101.261 197.712C97.7384 197.712 94.4899 197.165 91.5154 196.069C88.6192 195.051 85.8012 193.368 83.0615 191.02V186.206C87.993 191.607 94.1377 194.307 101.496 194.307C108.227 194.307 113.472 192.233 117.229 188.084C120.987 183.857 122.865 177.634 122.865 169.415V111.295H101.143V107.89H126.74V168.946C126.74 178.339 124.47 185.501 119.93 190.433C115.39 195.286 109.167 197.712 101.261 197.712Z" fill="white"/>
<path d="M153.511 68.75H157.268C171.28 68.75 182.082 72.5856 189.675 80.2567C197.346 87.8495 201.181 98.6909 201.181 112.781C201.181 120.843 199.224 128.24 195.311 134.972C191.397 141.704 186.074 147.027 179.342 150.941C172.689 154.854 165.331 156.811 157.268 156.811H153.511V68.75ZM158.207 153.171C165.409 153.171 171.984 151.41 177.933 147.888C183.882 144.287 188.579 139.395 192.023 133.211C195.545 127.027 197.307 120.217 197.307 112.781C197.307 99.7867 193.902 89.8064 187.091 82.8398C180.36 75.7949 170.732 72.2725 158.207 72.2725H157.268V153.171H158.207Z" fill="white"/>
<path d="M19.0578 237.415H15.109C14.9963 236.826 14.7887 236.305 14.486 235.851C14.1833 235.39 13.8068 235 13.3563 234.68C12.9058 234.36 12.392 234.12 11.8148 233.96C11.2446 233.794 10.6287 233.71 9.96706 233.71C8.79157 233.71 7.74981 233.979 6.84179 234.517C5.93378 235.048 5.22285 235.828 4.70901 236.858C4.19517 237.882 3.93826 239.133 3.93826 240.611C3.93826 242.114 4.19517 243.381 4.70901 244.411C5.22989 245.435 5.94082 246.209 6.84179 246.733C7.74981 247.252 8.78805 247.511 9.9565 247.511C10.6041 247.511 11.2094 247.434 11.7725 247.28C12.3427 247.12 12.853 246.887 13.3035 246.58C13.761 246.273 14.1446 245.895 14.4543 245.447C14.7711 245 14.9893 244.488 15.109 243.912L19.0578 243.931C18.91 244.865 18.5897 245.742 18.097 246.561C17.6113 247.38 16.9743 248.102 16.1859 248.729C15.3976 249.35 14.4755 249.836 13.4196 250.188C12.3638 250.534 11.1918 250.706 9.90371 250.706C8.00321 250.706 6.30684 250.307 4.8146 249.507C3.32235 248.707 2.14686 247.552 1.28812 246.042C0.429372 244.532 0 242.722 0 240.611C0 238.493 0.432891 236.682 1.29867 235.179C2.16446 233.669 3.34347 232.514 4.83571 231.714C6.32796 230.915 8.01729 230.515 9.90371 230.515C11.1074 230.515 12.2265 230.668 13.2613 230.975C14.296 231.282 15.2181 231.733 16.0275 232.328C16.837 232.917 17.5022 233.64 18.0231 234.497C18.551 235.348 18.8959 236.321 19.0578 237.415Z" fill="white"/>
<path d="M21.7614 230.783H26.1854L31.4751 239.478H31.6863L36.976 230.783H41.3999L33.534 243.106V250.438H29.6274V243.106L21.7614 230.783Z" fill="white"/>
<path d="M44.7688 250.438V230.783H52.8776C54.5387 230.783 55.9324 231.046 57.0587 231.57C58.1919 232.095 59.0471 232.831 59.6243 233.778C60.2086 234.718 60.5007 235.815 60.5007 237.069C60.5007 238.33 60.205 239.424 59.6138 240.351C59.0295 241.273 58.1673 241.986 57.027 242.492C55.8867 242.991 54.4859 243.24 52.8248 243.24H47.0494V240.284H52.2969C53.2682 240.284 54.0636 240.163 54.683 239.92C55.3025 239.67 55.76 239.309 56.0556 238.835C56.3583 238.355 56.5096 237.767 56.5096 237.069C56.5096 236.372 56.3583 235.777 56.0556 235.284C55.753 234.785 55.2919 234.408 54.6725 234.152C54.0531 233.89 53.2541 233.758 52.2757 233.758H48.6859V250.438H44.7688ZM55.9395 241.532L61.2925 250.438H56.9214L51.6634 241.532H55.9395Z" fill="white"/>
<path d="M68.6181 230.783V250.438H64.701V230.783H68.6181Z" fill="white"/>
<path d="M73.4546 250.438V230.783H77.3717V247.453H86.8953V250.438H73.4546Z" fill="white"/>
<path d="M107.391 230.783H111.276V244.603C111.269 245.87 110.973 246.96 110.389 247.875C109.805 248.784 108.988 249.484 107.94 249.977C106.898 250.463 105.684 250.706 104.297 250.706C103.03 250.706 101.89 250.502 100.876 250.092C99.8695 249.676 99.0705 249.062 98.4793 248.25C97.888 247.437 97.5924 246.426 97.5924 245.217H101.488C101.495 245.748 101.622 246.206 101.869 246.589C102.122 246.973 102.47 247.268 102.914 247.472C103.357 247.677 103.868 247.779 104.445 247.779C105.071 247.779 105.603 247.661 106.039 247.424C106.475 247.181 106.806 246.823 107.032 246.349C107.264 245.876 107.383 245.294 107.391 244.603V230.783Z" fill="white"/>
<path d="M129.751 230.783H133.668V243.624C133.668 245.032 133.302 246.269 132.57 247.338C131.845 248.406 130.825 249.241 129.508 249.843C128.192 250.438 126.654 250.735 124.894 250.735C123.128 250.735 121.586 250.438 120.27 249.843C118.953 249.241 117.933 248.406 117.208 247.338C116.483 246.269 116.12 245.032 116.12 243.624V230.783H120.037V243.326C120.037 244.145 120.235 244.875 120.629 245.515C121.03 246.154 121.593 246.657 122.318 247.021C123.043 247.38 123.902 247.559 124.894 247.559C125.887 247.559 126.746 247.38 127.471 247.021C128.203 246.657 128.766 246.154 129.16 245.515C129.554 244.875 129.751 244.145 129.751 243.326V230.783Z" fill="white"/>
<path d="M156.29 230.783V250.438H152.806L142.617 237.05H142.438V250.438H138.521V230.783H142.026L152.204 244.181H152.394V230.783H156.29Z" fill="white"/>
<path d="M165.07 230.783V250.438H161.153V230.783H165.07Z" fill="white"/>
<path d="M189.228 240.611C189.228 242.728 188.792 244.542 187.919 246.052C187.053 247.555 185.871 248.707 184.372 249.507C182.879 250.307 181.186 250.706 179.293 250.706C177.4 250.706 175.703 250.307 174.204 249.507C172.712 248.701 171.529 247.546 170.656 246.042C169.791 244.532 169.358 242.722 169.358 240.611C169.358 238.493 169.791 236.682 170.656 235.179C171.529 233.669 172.712 232.514 174.204 231.714C175.703 230.915 177.4 230.515 179.293 230.515C181.186 230.515 182.879 230.915 184.372 231.714C185.871 232.514 187.053 233.669 187.919 235.179C188.792 236.682 189.228 238.493 189.228 240.611ZM185.29 240.611C185.29 239.12 185.033 237.863 184.519 236.839C184.013 235.809 183.309 235.032 182.408 234.507C181.507 233.976 180.469 233.71 179.293 233.71C178.118 233.71 177.079 233.976 176.178 234.507C175.277 235.032 174.57 235.809 174.056 236.839C173.549 237.863 173.296 239.12 173.296 240.611C173.296 242.101 173.549 243.362 174.056 244.392C174.57 245.415 175.277 246.193 176.178 246.724C177.079 247.248 178.118 247.511 179.293 247.511C180.469 247.511 181.507 247.248 182.408 246.724C183.309 246.193 184.013 245.415 184.519 244.392C185.033 243.362 185.29 242.101 185.29 240.611Z" fill="white"/>
<path d="M193.526 250.438V230.783H201.635C203.296 230.783 204.69 231.046 205.816 231.57C206.95 232.095 207.805 232.831 208.382 233.778C208.966 234.718 209.258 235.815 209.258 237.069C209.258 238.33 208.963 239.424 208.371 240.351C207.787 241.273 206.925 241.986 205.785 242.492C204.644 242.991 203.244 243.24 201.582 243.24H195.807V240.284H201.054C202.026 240.284 202.821 240.163 203.441 239.92C204.06 239.67 204.518 239.309 204.813 238.835C205.116 238.355 205.267 237.767 205.267 237.069C205.267 236.372 205.116 235.777 204.813 235.284C204.511 234.785 204.049 234.408 203.43 234.152C202.811 233.89 202.012 233.758 201.033 233.758H197.444V250.438H193.526ZM204.697 241.532L210.05 250.438H205.679L200.421 241.532H204.697Z" fill="white"/>
<path d="M228.756 250.438H221.428V230.783H228.904C231.05 230.783 232.895 231.177 234.436 231.964C235.985 232.744 237.174 233.867 238.005 235.332C238.835 236.797 239.251 238.55 239.251 240.591C239.251 242.639 238.832 244.398 237.994 245.87C237.164 247.341 235.964 248.47 234.394 249.257C232.831 250.044 230.952 250.438 228.756 250.438ZM225.345 247.357H228.566C230.072 247.357 231.328 247.108 232.335 246.609C233.342 246.103 234.098 245.351 234.605 244.353C235.112 243.349 235.365 242.095 235.365 240.591C235.365 239.088 235.112 237.84 234.605 236.849C234.098 235.851 233.349 235.105 232.356 234.613C231.371 234.113 230.146 233.864 228.682 233.864H225.345V247.357Z" fill="white"/>
<path d="M247.484 230.783V250.438H243.567V230.783H247.484Z" fill="white"/>
<path d="M252.321 230.783H257.114L263.534 245.025H263.787L270.206 230.783H275V250.438H271.241V236.935H271.041L265.065 250.38H262.256L256.28 236.906H256.079V250.438H252.321V230.783Z" fill="white"/>
</svg>
