<?xml version="1.0" encoding="utf-8"?>
<!-- Generator: Adobe Illustrator 26.1.0, SVG Export Plug-In . SVG Version: 6.00 Build 0)  -->
<svg version="1.1" id="Layer_1" xmlns="http://www.w3.org/2000/svg" xmlns:xlink="http://www.w3.org/1999/xlink" x="0px" y="0px"
	 viewBox="0 0 272 61" style="enable-background:new 0 0 272 61;" xml:space="preserve">
<style type="text/css">
	.st0{fill-rule:evenodd;clip-rule:evenodd;fill:#FFFFFF;}
	.st1{clip-path:url(#SVGID_00000171693550741317525490000005455838983006038703_);}
	.st2{fill-rule:evenodd;clip-rule:evenodd;fill:#EA1E48;}
	.st3{fill:#A5B2B5;}
</style>
<rect x="7.3" y="7.5" class="st0" width="26.1" height="44.8"/>
<g>
	<defs>
		<rect id="SVGID_1_" y="0" width="206" height="61"/>
	</defs>
	<clipPath id="SVGID_00000085217820880120379980000017327053529476824746_">
		<use xlink:href="#SVGID_1_"  style="overflow:visible;"/>
	</clipPath>
	<g style="clip-path:url(#SVGID_00000085217820880120379980000017327053529476824746_);">
		<path class="st2" d="M0,0v61h40V0H0z M13.5,48.3l-5.6-5.8l13.2-13.7L7.9,15.2l5.6-5.8l18.7,19.5L13.5,48.3z"/>
	</g>
</g>
<path class="st3" d="M71.4,35c0,3.6-0.7,6.2-2.1,7.9c-1.4,1.7-3.8,2.5-7.2,2.5H55V13h7.2c3.4,0,5.8,0.7,7.2,2.1
	c1.4,1.4,2.1,3.8,2.1,7.2V35z M66.8,23.4c0-0.6,0-1.1,0-1.4c0-0.3,0-0.8-0.1-1.2c0-0.5-0.1-0.9-0.1-1.1c-0.1-0.3-0.1-0.6-0.3-0.9
	c-0.1-0.3-0.2-0.6-0.4-0.8c-0.2-0.2-0.4-0.4-0.6-0.6c-0.2-0.2-0.5-0.4-0.8-0.5c-0.3-0.1-0.7-0.2-1.1-0.3c-0.4-0.1-0.9-0.1-1.4-0.1
	h-2.5v25.4h2.5c0.5,0,0.9,0,1.2-0.1c0.4-0.1,0.7-0.1,1-0.3c0.3-0.1,0.6-0.3,0.8-0.4c0.2-0.2,0.4-0.4,0.6-0.6
	c0.2-0.2,0.3-0.5,0.4-0.7c0.1-0.3,0.2-0.5,0.3-0.8c0.1-0.3,0.1-0.6,0.2-1c0-0.3,0.1-0.7,0.1-1.1c0-0.4,0-0.8,0-1.2
	c0-0.4,0-0.8,0-1.3c0-0.1,0-0.2,0-0.2s0-0.1,0-0.2c0-0.1,0-0.2,0-0.3V23.4z"/>
<path class="st3" d="M80,45.4h-4.6V13H80V45.4z"/>
<path class="st3" d="M90.1,21.9c2.2,0,3.8,0.7,5.1,2c1.2,1.3,1.9,3.1,1.9,5.3v10.4c0,2.4,0.2,4.3,0.6,5.8H93l-0.6-3.5
	c-0.2,0.5-0.4,0.9-0.6,1.1c-0.1,0.3-0.4,0.6-0.7,1c-0.3,0.4-0.6,0.7-0.9,0.9c-0.3,0.2-0.7,0.4-1.1,0.5c-0.4,0.2-0.9,0.2-1.4,0.2
	c-1.3,0-2.4-0.6-3.3-1.7c-0.9-1.1-1.3-2.4-1.3-3.8c0-1.1,0.2-2.1,0.6-3.1c0.4-0.9,0.8-1.6,1.2-2.2c0.4-0.6,1.1-1.1,2.1-1.7
	c1-0.6,1.7-1,2.2-1.2c0.5-0.2,1.4-0.6,2.6-1.1c0.2-0.1,0.4-0.2,0.5-0.2v-1.7c0-1.2-0.2-2.1-0.5-2.7c-0.3-0.7-0.9-1-1.8-1
	c-0.6,0-1.1,0.2-1.4,0.5c-0.3,0.3-0.6,0.8-0.7,1.3c-0.1,0.5-0.2,1.1-0.2,1.9h-4.6c0-2.2,0.6-4,1.9-5.3
	C86.2,22.6,87.9,21.9,90.1,21.9z M92.4,33.8c-0.2,0.1-0.5,0.3-1,0.6c-0.4,0.3-0.8,0.5-1.1,0.7c-0.3,0.2-0.6,0.4-1,0.7
	c-0.4,0.3-0.7,0.6-0.9,0.9c-0.2,0.3-0.4,0.6-0.5,1s-0.2,0.8-0.2,1.3c0,1.9,0.8,2.9,2.3,2.9c0.3,0,0.6-0.1,0.9-0.3
	c0.3-0.2,0.5-0.4,0.7-0.6c0.2-0.2,0.4-0.4,0.6-0.7c0-0.1,0.1-0.1,0.1-0.1V33.8z"/>
<path class="st3" d="M124.6,25.7c-0.5,0-0.9,0.1-1.4,0.3c-0.5,0.2-0.8,0.4-1.1,0.5c-0.3,0.2-0.6,0.4-1,0.7v18.1h-4.6V28.6
	c0-0.1,0-0.2,0-0.3c0-0.3,0-0.6,0-0.8s0-0.4-0.1-0.7c0-0.3-0.1-0.5-0.2-0.6c-0.1-0.1-0.2-0.3-0.3-0.4c-0.2-0.1-0.3-0.2-0.6-0.2
	c-1.1,0-2.3,0.5-3.5,1.5v18.2h-4.6V22.2h4.6v2.6c1.7-2,3.6-2.9,5.8-2.9c1.1,0,1.9,0.2,2.4,0.7c0.5,0.5,0.9,1.3,1,2.3
	c0.8-1,1.6-1.8,2.5-2.3s2-0.8,3.3-0.8c0.4,0,0.7,0,1,0.1c0.3,0.1,0.6,0.2,0.8,0.3s0.4,0.3,0.6,0.5c0.2,0.2,0.3,0.4,0.4,0.6
	c0.1,0.2,0.2,0.4,0.3,0.8c0.1,0.3,0.1,0.6,0.2,0.9s0.1,0.6,0.1,1c0,0.4,0,0.8,0,1c0,0.2,0,0.6,0,1.1c0,0.1,0,0.2,0,0.3v16.8h-4.6
	V28.5c0-1,0-1.7-0.1-2C125.4,26,125.1,25.7,124.6,25.7z"/>
<path class="st3" d="M134.6,22.2h4.6v23.1h-4.6V22.2z M134.6,14.2h4.6v4.6h-4.6V14.2z"/>
<path class="st3" d="M147.9,35c0,1.9,0,3.1,0.1,3.5c0.3,2.2,1,3.3,2.3,3.4c0.4,0,0.7-0.1,1-0.2c0.3-0.1,0.5-0.3,0.7-0.5
	c0.2-0.3,0.3-0.5,0.4-0.7c0.1-0.2,0.2-0.6,0.2-1c0-0.4,0.1-0.8,0.1-1c0-0.3,0-0.7,0-1.2h4.6c0,2.8-0.5,4.9-1.6,6.3
	c-1.1,1.4-2.9,2.1-5.3,2.1c-0.9,0-1.7-0.1-2.4-0.4c-0.7-0.2-1.3-0.6-1.8-0.9c-0.5-0.4-0.9-0.9-1.2-1.5c-0.3-0.6-0.6-1.3-0.8-1.9
	c-0.2-0.7-0.3-1.4-0.5-2.3c-0.1-0.9-0.2-1.8-0.2-2.6c0-0.8-0.1-1.7-0.1-2.8c0-1.1,0-2.2,0.1-3c0.1-0.9,0.2-1.8,0.4-2.7
	c0.2-0.9,0.4-1.7,0.7-2.3c0.3-0.6,0.8-1.2,1.2-1.7c0.5-0.5,1.1-0.9,1.9-1.2c0.8-0.3,1.6-0.4,2.6-0.4c1,0,1.9,0.1,2.6,0.4
	c0.8,0.3,1.4,0.6,1.9,1.2c0.5,0.5,0.9,1.1,1.2,1.7c0.3,0.6,0.6,1.4,0.8,2.3c0.2,0.9,0.3,1.8,0.3,2.7c0.1,0.9,0.1,1.9,0.1,3v0.5h-9.2
	V35z M152.5,31.5c0-1.9-0.1-3.2-0.3-3.9c-0.3-1.2-1-1.8-2-1.8c-0.3,0-0.6,0.1-0.9,0.2c-0.2,0.1-0.4,0.3-0.6,0.5
	c-0.2,0.2-0.3,0.4-0.4,0.8c-0.1,0.3-0.2,0.6-0.3,0.9c0,0.3-0.1,0.6-0.1,1.1c0,0.5,0,0.8-0.1,1.1c0,0.2,0,0.6,0,1.1
	c0,0.1,0,0.2,0,0.2H152.5z"/>
<path class="st3" d="M169.4,29.2c-0.2-0.5-0.3-0.8-0.5-1.2c-0.2-0.3-0.4-0.7-0.7-1.1c-0.3-0.4-0.6-0.7-1-0.9
	c-0.4-0.2-0.8-0.3-1.3-0.3c-0.7,0-1.3,0.2-1.7,0.6c-0.4,0.4-0.6,1-0.6,1.7c0,0.7,0.4,1.4,1.2,2l4.6,3.5c0.5,0.4,1,0.8,1.3,1.2
	c0.4,0.4,0.7,0.8,1.1,1.3c0.3,0.5,0.6,1,0.8,1.7c0.2,0.6,0.3,1.3,0.3,2c0,2-0.6,3.5-1.9,4.5c-1.3,1-2.9,1.6-5,1.6
	c-1.9,0-3.4-0.6-4.6-1.7c-1.1-1.1-1.9-2.6-2.3-4.4l3.5-1.2c0.8,2.3,2,3.5,3.5,3.5c0.7,0,1.3-0.2,1.7-0.6c0.4-0.4,0.6-1,0.6-1.7
	c0-1.1-0.4-2-1.2-2.7l-4.6-3.5c-0.5-0.3-1-0.7-1.3-1c-0.3-0.3-0.7-0.7-1.1-1.1c-0.4-0.4-0.6-0.9-0.8-1.5c-0.2-0.6-0.3-1.2-0.3-1.8
	c0-2,0.6-3.5,1.9-4.5c1.3-1,3-1.6,5.1-1.6c1,0,1.9,0.2,2.7,0.5c0.8,0.3,1.5,0.8,2,1.3c0.6,0.6,1,1.2,1.4,1.9
	c0.4,0.7,0.6,1.5,0.8,2.3L169.4,29.2z"/>
<path class="st3" d="M182.6,25.7h-6.9v-3.5h11.6v3.5l-8.1,16.2h8.1v3.5h-12.7v-3.5L182.6,25.7z"/>
<path class="st3" d="M194.6,13v17.8l5.8-8.5h4.6l-5.2,8.1l5.2,15h-4.6l-3.5-11.2l-2.3,3.1v8.1H190V13H194.6z"/>
<path class="st3" d="M212.9,21.9c2.2,0,3.8,0.7,5.1,2c1.2,1.3,1.9,3.1,1.9,5.3v10.4c0,2.4,0.2,4.3,0.6,5.8h-4.6l-0.6-3.5
	c-0.2,0.5-0.4,0.9-0.6,1.1c-0.1,0.3-0.4,0.6-0.7,1c-0.3,0.4-0.6,0.7-0.9,0.9c-0.3,0.2-0.6,0.4-1.1,0.5c-0.4,0.2-0.9,0.2-1.4,0.2
	c-1.3,0-2.4-0.6-3.3-1.7c-0.9-1.1-1.3-2.4-1.3-3.8c0-1.1,0.2-2.1,0.6-3.1c0.4-0.9,0.8-1.6,1.2-2.2c0.4-0.6,1.1-1.1,2.1-1.7
	c1-0.6,1.7-1,2.2-1.2c0.5-0.2,1.4-0.6,2.6-1.1c0.2-0.1,0.4-0.2,0.5-0.2v-1.7c0-1.2-0.2-2.1-0.5-2.7c-0.3-0.7-0.9-1-1.8-1
	c-0.6,0-1.1,0.2-1.4,0.5c-0.3,0.3-0.6,0.8-0.7,1.3c-0.1,0.5-0.2,1.1-0.2,1.9h-4.6c0-2.2,0.6-4,1.9-5.3
	C209,22.6,210.7,21.9,212.9,21.9z M215.2,33.8c-0.2,0.1-0.5,0.3-1,0.6c-0.4,0.3-0.8,0.5-1.1,0.7c-0.3,0.2-0.6,0.4-1,0.7
	c-0.4,0.3-0.7,0.6-0.9,0.9c-0.2,0.3-0.4,0.6-0.5,1c-0.2,0.4-0.2,0.8-0.2,1.3c0,1.9,0.8,2.9,2.3,2.9c0.3,0,0.6-0.1,0.9-0.3
	c0.3-0.2,0.5-0.4,0.7-0.6c0.2-0.2,0.4-0.4,0.6-0.7c0-0.1,0.1-0.1,0.1-0.1V33.8z"/>
<path class="st3" d="M231.8,20.1h-2.3l2.3-6.9h4.6L231.8,20.1z M228.3,24.7c0.7-0.6,1.2-1.1,1.7-1.4c0.4-0.3,1-0.7,1.8-0.9
	c0.8-0.3,1.6-0.5,2.5-0.5c1,0,1.8,0.4,2.4,1.1c0.6,0.7,0.9,1.6,0.9,2.7v19.7H233V28c0-0.8-0.1-1.4-0.3-1.8c-0.2-0.4-0.7-0.6-1.4-0.6
	c-0.4,0-0.8,0.1-1.2,0.3c-0.4,0.2-0.7,0.3-0.9,0.5c-0.2,0.1-0.5,0.3-0.8,0.7v18.3h-4.6V22.2h4.6V24.7z"/>
<path class="st3" d="M245.8,33.8c0,0.2,0,0.6,0,1c0,0.4,0,0.8,0,1.2c0,0.3,0,0.7,0,1.2c0,0.5,0,0.9,0.1,1.2c0,0.3,0.1,0.7,0.1,1.1
	c0.1,0.4,0.2,0.7,0.3,1c0.1,0.3,0.3,0.5,0.4,0.8c0.2,0.2,0.4,0.4,0.6,0.5c0.3,0.1,0.5,0.2,0.8,0.2c0.3,0,0.6,0,0.8-0.1
	c0.3-0.1,0.5-0.2,0.6-0.3c0.2-0.1,0.3-0.3,0.4-0.6c0.1-0.3,0.2-0.5,0.3-0.7c0.1-0.2,0.1-0.5,0.1-0.9c0-0.4,0-0.7,0-0.9
	c0-0.2,0-0.6,0-1h4.6c0,2.7-0.5,4.8-1.6,6.2c-1.1,1.5-2.9,2.2-5.3,2.2c-0.9,0-1.7-0.1-2.4-0.3c-0.7-0.2-1.3-0.5-1.8-0.9
	c-0.5-0.4-0.9-0.9-1.2-1.5c-0.3-0.6-0.6-1.2-0.8-1.8c-0.2-0.6-0.3-1.4-0.5-2.2c-0.1-0.9-0.2-1.7-0.2-2.4s-0.1-1.6-0.1-2.6
	s0-1.9,0.1-2.6c0-0.8,0.1-1.6,0.2-2.4c0.1-0.9,0.3-1.6,0.5-2.2c0.2-0.6,0.5-1.2,0.8-1.8c0.4-0.6,0.8-1.1,1.2-1.5
	c0.5-0.4,1.1-0.7,1.8-0.9c0.7-0.2,1.5-0.3,2.4-0.3c1.3,0,2.4,0.2,3.3,0.6c0.9,0.4,1.6,0.9,2.2,1.7c0.5,0.7,0.9,1.6,1.1,2.6
	c0.2,1,0.3,2.2,0.3,3.5h-4.6c0-0.5,0-1,0-1.3c0-0.4-0.1-0.8-0.2-1.3c-0.1-0.5-0.2-0.8-0.4-1.1c-0.2-0.3-0.4-0.6-0.7-0.8
	c-0.3-0.2-0.6-0.3-1-0.3c-0.3,0-0.6,0.1-0.8,0.2c-0.2,0.1-0.4,0.3-0.6,0.5c-0.2,0.2-0.3,0.5-0.4,0.8c-0.1,0.3-0.2,0.6-0.3,1
	c-0.1,0.4-0.1,0.8-0.1,1.1c0,0.3-0.1,0.7-0.1,1.2c0,0.5,0,0.9,0,1.2c0,0.3,0,0.7,0,1.2C245.8,33.2,245.8,33.6,245.8,33.8z"/>
<path class="st3" d="M263.8,21.9c2.2,0,3.8,0.7,5.1,2c1.2,1.3,1.9,3.1,1.9,5.3v10.4c0,2.4,0.2,4.3,0.6,5.8h-4.6l-0.6-3.5
	c-0.2,0.5-0.4,0.9-0.6,1.1c-0.1,0.3-0.4,0.6-0.7,1c-0.3,0.4-0.6,0.7-0.9,0.9c-0.3,0.2-0.6,0.4-1.1,0.5c-0.4,0.2-0.9,0.2-1.4,0.2
	c-1.3,0-2.4-0.6-3.3-1.7c-0.9-1.1-1.3-2.4-1.3-3.8c0-1.1,0.2-2.1,0.6-3.1c0.4-0.9,0.8-1.6,1.2-2.2c0.4-0.6,1.1-1.1,2.1-1.7
	c1-0.6,1.7-1,2.2-1.2c0.5-0.2,1.4-0.6,2.6-1.1c0.2-0.1,0.4-0.2,0.5-0.2v-1.7c0-1.2-0.2-2.1-0.5-2.7c-0.3-0.7-0.9-1-1.8-1
	c-0.6,0-1.1,0.2-1.4,0.5c-0.3,0.3-0.6,0.8-0.7,1.3c-0.1,0.5-0.2,1.1-0.2,1.9h-4.6c0-2.2,0.6-4,1.9-5.3
	C259.9,22.6,261.6,21.9,263.8,21.9z M266.1,33.8c-0.2,0.1-0.5,0.3-1,0.6c-0.4,0.3-0.8,0.5-1.1,0.7c-0.3,0.2-0.6,0.4-1,0.7
	c-0.4,0.3-0.7,0.6-0.9,0.9c-0.2,0.3-0.4,0.6-0.5,1c-0.2,0.4-0.2,0.8-0.2,1.3c0,1.9,0.8,2.9,2.3,2.9c0.3,0,0.6-0.1,0.9-0.3
	c0.3-0.2,0.5-0.4,0.7-0.6c0.2-0.2,0.4-0.4,0.6-0.7c0-0.1,0.1-0.1,0.1-0.1V33.8z"/>
</svg>
